<?xml version="1.0" encoding="utf-8"?>
<!-- Generator: Adobe Illustrator 28.0.0, SVG Export Plug-In . SVG Version: 6.00 Build 0)  -->
<svg version="1.1" xmlns="http://www.w3.org/2000/svg" xmlns:xlink="http://www.w3.org/1999/xlink" x="0px" y="0px"
	 viewBox="0 0 512 512" style="enable-background:new 0 0 512 512;" xml:space="preserve">
<style type="text/css">
	.st0{display:none;}
	.st1{display:inline;fill:#F4B2B0;}
	.st2{display:inline;}
	.st3{display:none;fill:#B3404A;}
	.st4{fill:#B3404A;}
	.st5{display:inline;fill:none;}
	.st6{display:inline;fill:#B3404A;}
	.st7{font-family:'MyriadPro-Regular';}
	.st8{font-size:200px;}
</style>
<g id="Layer_1" class="st0">
	<rect x="104.9" y="191.7" class="st1" width="302.2" height="304.5"/>
	<g class="st2">
		<path class="st3" d="M180.1,413.4c-8.7,0-15.7-7-15.7-15.7V296.9c0-8.7,7-15.7,15.7-15.7s15.7,7,15.7,15.7v100.7
			C195.8,406.3,188.8,413.4,180.1,413.4z"/>
		<path class="st3" d="M256,413.4c-8.7,0-15.7-7-15.7-15.7V296.9c0-8.7,7-15.7,15.7-15.7c8.7,0,15.7,7,15.7,15.7v100.7
			C271.7,406.3,264.7,413.4,256,413.4z"/>
		<path class="st3" d="M331.9,413.4c-8.7,0-15.7-7-15.7-15.7V296.9c0-8.7,7-15.7,15.7-15.7s15.7,7,15.7,15.7v100.7
			C347.7,406.3,340.6,413.4,331.9,413.4z"/>
		<path class="st4" d="M395.9,73.7c-8.7,0-15.7,7-15.7,15.7s7,15.7,15.7,15.7c18.3,0,33.2,14.9,33.2,33.2V176h-22H104.9h-22v-37.6
			c0-18.3,14.9-33.2,33.2-33.2h163.5c8.7,0,15.7-7,15.7-15.7s-7-15.7-15.7-15.7h-92.9V31.5h138.5v58c0,8.7,7,15.7,15.7,15.7
			s15.7-7,15.7-15.7V15.7C356.7,7,349.7,0,341,0H171c-8.7,0-15.7,7-15.7,15.7v58h-39.2c-35.7,0-64.7,29-64.7,64.7v53.4
			c0,8.7,7,15.7,15.7,15.7h22v288.8c0,8.7,7,15.7,15.7,15.7h302.2c8.7,0,15.7-7,15.7-15.7V207.5h22c8.7,0,15.7-7,15.7-15.7v-53.4
			C460.6,102.7,431.6,73.7,395.9,73.7z M391.3,480.5H120.7v-273h270.7L391.3,480.5L391.3,480.5z"/>
	</g>
</g>
<g id="Layer_2" class="st0">
	<rect x="201.9" y="279" class="st5" width="150" height="154"/>
	<text transform="matrix(1 0 0 1 201.8989 420.9976)" class="st6 st7 st8">1</text>
</g>
</svg>
