<?xml version="1.0" encoding="utf-8"?>
<!-- Generator: Adobe Illustrator 28.0.0, SVG Export Plug-In . SVG Version: 6.00 Build 0)  -->
<svg version="1.1" id="Layer_1" xmlns="http://www.w3.org/2000/svg" xmlns:xlink="http://www.w3.org/1999/xlink" x="0px" y="0px"
	 viewBox="0 0 512 512" style="enable-background:new 0 0 512 512;" xml:space="preserve">
<style type="text/css">
	.st0{fill:#F4B2B0;}
	.st1{display:none;fill:#B3404A;}
	.st2{fill:#B3404A;}
	.st3{fill:none;}
	.st4{font-family:'MyriadPro-Regular';}
	.st5{font-size:200px;}
</style>
<rect x="114.4" y="220.7" class="st0" width="274.8" height="277"/>
<g>
	<path class="st1" d="M182.7,422.3c-7.9,0-14.3-6.4-14.3-14.3v-91.6c0-7.9,6.4-14.3,14.3-14.3s14.3,6.4,14.3,14.3V408
		C197.1,415.9,190.7,422.3,182.7,422.3z"/>
	<path class="st1" d="M251.8,422.3c-7.9,0-14.3-6.4-14.3-14.3v-91.6c0-7.9,6.4-14.3,14.3-14.3c7.9,0,14.3,6.4,14.3,14.3V408
		C266.1,415.9,259.7,422.3,251.8,422.3z"/>
	<path class="st1" d="M320.9,422.3c-7.9,0-14.3-6.4-14.3-14.3v-91.6c0-7.9,6.4-14.3,14.3-14.3s14.3,6.4,14.3,14.3V408
		C335.2,415.9,328.8,422.3,320.9,422.3z"/>
	<path class="st2" d="M434.6,136c-8.4-13.3-21.5-22.4-36.9-25.8c-7.7-1.7-15.4,3.2-17.1,10.9c-1.7,7.7,3.2,15.4,10.9,17.1
		c7.9,1.7,14.6,6.5,18.9,13.3s5.8,14.9,4,22.7l-7.4,33.4L99.6,139.2l7.4-33.4c3.6-16.2,19.8-26.5,36-22.9l145.2,32.2
		c7.7,1.7,15.4-3.2,17.1-10.9c1.7-7.7-3.2-15.4-10.9-17.1L212,68.9l8.3-37.5l123,27.3l-11.4,51.5c-1.7,7.7,3.2,15.4,10.9,17.1
		c1,0.2,2.1,0.3,3.1,0.3c6.6,0,12.5-4.5,14-11.2l14.5-65.4c0.8-3.7,0.1-7.6-1.9-10.8c-2-3.2-5.3-5.5-9-6.3L212.6,0.3
		c-7.7-1.7-15.4,3.2-17.1,10.9L184,62.7l-34.8-7.7c-31.7-7-63.1,13-70.2,44.7L68.6,147c-1.7,7.7,3.2,15.4,10.9,17.1l190.7,42.3
		H114.4c-7.9,0-14.3,6.4-14.3,14.3v277c0,7.9,6.4,14.3,14.3,14.3h274.8c7.9,0,14.3-6.4,14.3-14.3V236l11.2,2.5
		c1,0.2,2.1,0.3,3.1,0.3c2.7,0,5.4-0.8,7.7-2.2c3.2-2,5.5-5.3,6.3-9l10.5-47.4C445.8,165,443,149.2,434.6,136z M374.9,483.4H128.7
		V235h246.2V483.4z"/>
</g>
<rect x="201.8" y="286.7" class="st3" width="150" height="154"/>
<text transform="matrix(1 0 0 1 201.802 428.6995)" class="st2 st4 st5">1</text>
</svg>
