<svg width="105" height="45" viewBox="0 0 105 45" fill="none" xmlns="http://www.w3.org/2000/svg">
<path d="M21 22.8879C21 12.6518 21 7.53372 23.9201 4.15427C24.301 3.71347 24.7135 3.30099 25.1543 2.9201C28.5337 0 33.6518 0 43.8879 0H82.5C92.3624 0 97.2937 0 100.613 2.72387C101.22 3.22253 101.777 3.77967 102.276 4.38728C105 7.70633 105 12.6376 105 22.5C105 32.3624 105 37.2937 102.276 40.6127C101.777 41.2203 101.22 41.7775 100.613 42.2761C97.2937 45 92.3624 45 82.5 45H43.1121C33.6223 45 28.8774 45 25.6252 42.4664C24.8444 41.8581 24.1419 41.1556 23.5336 40.3748C21 37.1226 21 32.3777 21 22.8879Z" fill="#894AFF"/>
<path d="M33.4577 22.568C33.4577 21.6507 33.6444 20.8507 34.0177 20.168C34.391 19.4747 34.9084 18.9413 35.5697 18.568C36.231 18.184 36.9884 17.992 37.8417 17.992C38.9404 17.992 39.847 18.2693 40.5617 18.824C41.287 19.368 41.7724 20.136 42.0177 21.128H39.6017C39.4737 20.744 39.255 20.4453 38.9457 20.232C38.647 20.008 38.2737 19.896 37.8257 19.896C37.1857 19.896 36.679 20.1307 36.3057 20.6C35.9324 21.0587 35.7457 21.7147 35.7457 22.568C35.7457 23.4107 35.9324 24.0667 36.3057 24.536C36.679 24.9947 37.1857 25.224 37.8257 25.224C38.7324 25.224 39.3244 24.8187 39.6017 24.008H42.0177C41.7724 24.968 41.287 25.7307 40.5617 26.296C39.8364 26.8613 38.9297 27.144 37.8417 27.144C36.9884 27.144 36.231 26.9573 35.5697 26.584C34.9084 26.2 34.391 25.6667 34.0177 24.984C33.6444 24.2907 33.4577 23.4853 33.4577 22.568ZM43.0827 22.536C43.0827 21.64 43.2587 20.8453 43.6107 20.152C43.9734 19.4587 44.4587 18.9253 45.0667 18.552C45.6854 18.1787 46.3734 17.992 47.1307 17.992C47.792 17.992 48.368 18.1253 48.8587 18.392C49.36 18.6587 49.76 18.9947 50.0587 19.4V18.136H52.3147V27H50.0587V25.704C49.7707 26.12 49.3707 26.4667 48.8587 26.744C48.3574 27.0107 47.776 27.144 47.1147 27.144C46.368 27.144 45.6854 26.952 45.0667 26.568C44.4587 26.184 43.9734 25.6453 43.6107 24.952C43.2587 24.248 43.0827 23.4427 43.0827 22.536ZM50.0587 22.568C50.0587 22.024 49.952 21.56 49.7387 21.176C49.5254 20.7813 49.2374 20.4827 48.8747 20.28C48.512 20.0667 48.1227 19.96 47.7067 19.96C47.2907 19.96 46.9067 20.0613 46.5547 20.264C46.2027 20.4667 45.9147 20.7653 45.6907 21.16C45.4774 21.544 45.3707 22.0027 45.3707 22.536C45.3707 23.0693 45.4774 23.5387 45.6907 23.944C45.9147 24.3387 46.2027 24.6427 46.5547 24.856C46.9174 25.0693 47.3014 25.176 47.7067 25.176C48.1227 25.176 48.512 25.0747 48.8747 24.872C49.2374 24.6587 49.5254 24.36 49.7387 23.976C49.952 23.5813 50.0587 23.112 50.0587 22.568ZM56.7424 19.512C57.0304 19.0427 57.4038 18.6747 57.8624 18.408C58.3318 18.1413 58.8651 18.008 59.4624 18.008V20.36H58.8704C58.1664 20.36 57.6331 20.5253 57.2704 20.856C56.9184 21.1867 56.7424 21.7627 56.7424 22.584V27H54.5024V18.136H56.7424V19.512ZM63.5792 19.976V24.264C63.5792 24.5627 63.6485 24.7813 63.7872 24.92C63.9365 25.048 64.1819 25.112 64.5232 25.112H65.5632V27H64.1552C62.2672 27 61.3232 26.0827 61.3232 24.248V19.976H60.2672V18.136H61.3232V15.944H63.5792V18.136H65.5632V19.976H63.5792Z" fill="white"/>
<path d="M87.3163 29H74.8419C74.4934 29 74.1489 28.925 73.8319 28.78C73.5148 28.6349 73.2326 28.4233 73.0043 28.1594C72.776 27.8955 72.6069 27.5855 72.5085 27.2504C72.4102 26.9153 72.3848 26.563 72.4342 26.2172L73.7912 16.6971C73.8189 16.5036 73.9153 16.3266 74.0628 16.1985C74.2102 16.0705 74.3987 16 74.5938 16H87.5643C87.7594 16 87.948 16.0705 88.0954 16.1985C88.2428 16.3266 88.3392 16.5036 88.3669 16.6971L89.7239 26.2172C89.7733 26.563 89.748 26.9153 89.6496 27.2504C89.5512 27.5855 89.3822 27.8955 89.1539 28.1594C88.9255 28.4233 88.6433 28.6349 88.3263 28.78C88.0092 28.925 87.6648 29 87.3163 29Z" fill="white"/>
<path d="M78.615 15V14.3333C78.615 13.8029 78.8746 13.2942 79.3367 12.9191C79.7988 12.544 80.4255 12.3333 81.079 12.3333C81.7324 12.3333 82.3592 12.544 82.8212 12.9191C83.2833 13.2942 83.5429 13.8029 83.5429 14.3333V15H85.1855V14.3333C85.1855 13.4493 84.7529 12.6014 83.9827 11.9763C83.2126 11.3512 82.1681 11 81.079 11C79.9898 11 78.9453 11.3512 78.1752 11.9763C77.4051 12.6014 76.9724 13.4493 76.9724 14.3333V15H78.615Z" fill="white"/>
</svg>
